%TF.GenerationSoftware,KiCad,Pcbnew,10.0.4*%
%TF.CreationDate,2026-06-25T20:56:26+05:30*%
%TF.ProjectId,Industrial_ESP32_Controller,496e6475-7374-4726-9961-6c5f45535033,rev?*%
%TF.SameCoordinates,Original*%
%TF.FileFunction,Legend,Top*%
%TF.FilePolarity,Positive*%
%FSLAX46Y46*%
G04 Gerber Fmt 4.6, Leading zero omitted, Abs format (unit mm)*
G04 Created by KiCad (PCBNEW 10.0.4) date 2026-06-25 20:56:26*
%MOMM*%
%LPD*%
G01*
G04 APERTURE LIST*
%ADD10C,0.150000*%
%ADD11C,0.120000*%
G04 APERTURE END LIST*
D10*
X115278095Y-109674819D02*
X115278095Y-110484342D01*
X115278095Y-110484342D02*
X115325714Y-110579580D01*
X115325714Y-110579580D02*
X115373333Y-110627200D01*
X115373333Y-110627200D02*
X115468571Y-110674819D01*
X115468571Y-110674819D02*
X115659047Y-110674819D01*
X115659047Y-110674819D02*
X115754285Y-110627200D01*
X115754285Y-110627200D02*
X115801904Y-110579580D01*
X115801904Y-110579580D02*
X115849523Y-110484342D01*
X115849523Y-110484342D02*
X115849523Y-109674819D01*
X116278095Y-109770057D02*
X116325714Y-109722438D01*
X116325714Y-109722438D02*
X116420952Y-109674819D01*
X116420952Y-109674819D02*
X116659047Y-109674819D01*
X116659047Y-109674819D02*
X116754285Y-109722438D01*
X116754285Y-109722438D02*
X116801904Y-109770057D01*
X116801904Y-109770057D02*
X116849523Y-109865295D01*
X116849523Y-109865295D02*
X116849523Y-109960533D01*
X116849523Y-109960533D02*
X116801904Y-110103390D01*
X116801904Y-110103390D02*
X116230476Y-110674819D01*
X116230476Y-110674819D02*
X116849523Y-110674819D01*
X122287319Y-124076904D02*
X123096842Y-124076904D01*
X123096842Y-124076904D02*
X123192080Y-124029285D01*
X123192080Y-124029285D02*
X123239700Y-123981666D01*
X123239700Y-123981666D02*
X123287319Y-123886428D01*
X123287319Y-123886428D02*
X123287319Y-123695952D01*
X123287319Y-123695952D02*
X123239700Y-123600714D01*
X123239700Y-123600714D02*
X123192080Y-123553095D01*
X123192080Y-123553095D02*
X123096842Y-123505476D01*
X123096842Y-123505476D02*
X122287319Y-123505476D01*
X123287319Y-122505476D02*
X123287319Y-123076904D01*
X123287319Y-122791190D02*
X122287319Y-122791190D01*
X122287319Y-122791190D02*
X122430176Y-122886428D01*
X122430176Y-122886428D02*
X122525414Y-122981666D01*
X122525414Y-122981666D02*
X122573033Y-123076904D01*
X148333333Y-112304819D02*
X148000000Y-111828628D01*
X147761905Y-112304819D02*
X147761905Y-111304819D01*
X147761905Y-111304819D02*
X148142857Y-111304819D01*
X148142857Y-111304819D02*
X148238095Y-111352438D01*
X148238095Y-111352438D02*
X148285714Y-111400057D01*
X148285714Y-111400057D02*
X148333333Y-111495295D01*
X148333333Y-111495295D02*
X148333333Y-111638152D01*
X148333333Y-111638152D02*
X148285714Y-111733390D01*
X148285714Y-111733390D02*
X148238095Y-111781009D01*
X148238095Y-111781009D02*
X148142857Y-111828628D01*
X148142857Y-111828628D02*
X147761905Y-111828628D01*
X148714286Y-111400057D02*
X148761905Y-111352438D01*
X148761905Y-111352438D02*
X148857143Y-111304819D01*
X148857143Y-111304819D02*
X149095238Y-111304819D01*
X149095238Y-111304819D02*
X149190476Y-111352438D01*
X149190476Y-111352438D02*
X149238095Y-111400057D01*
X149238095Y-111400057D02*
X149285714Y-111495295D01*
X149285714Y-111495295D02*
X149285714Y-111590533D01*
X149285714Y-111590533D02*
X149238095Y-111733390D01*
X149238095Y-111733390D02*
X148666667Y-112304819D01*
X148666667Y-112304819D02*
X149285714Y-112304819D01*
X151833333Y-116804819D02*
X151500000Y-116328628D01*
X151261905Y-116804819D02*
X151261905Y-115804819D01*
X151261905Y-115804819D02*
X151642857Y-115804819D01*
X151642857Y-115804819D02*
X151738095Y-115852438D01*
X151738095Y-115852438D02*
X151785714Y-115900057D01*
X151785714Y-115900057D02*
X151833333Y-115995295D01*
X151833333Y-115995295D02*
X151833333Y-116138152D01*
X151833333Y-116138152D02*
X151785714Y-116233390D01*
X151785714Y-116233390D02*
X151738095Y-116281009D01*
X151738095Y-116281009D02*
X151642857Y-116328628D01*
X151642857Y-116328628D02*
X151261905Y-116328628D01*
X152785714Y-116804819D02*
X152214286Y-116804819D01*
X152500000Y-116804819D02*
X152500000Y-115804819D01*
X152500000Y-115804819D02*
X152404762Y-115947676D01*
X152404762Y-115947676D02*
X152309524Y-116042914D01*
X152309524Y-116042914D02*
X152214286Y-116090533D01*
X165764819Y-109833333D02*
X166479104Y-109833333D01*
X166479104Y-109833333D02*
X166621961Y-109880952D01*
X166621961Y-109880952D02*
X166717200Y-109976190D01*
X166717200Y-109976190D02*
X166764819Y-110119047D01*
X166764819Y-110119047D02*
X166764819Y-110214285D01*
X165860057Y-109404761D02*
X165812438Y-109357142D01*
X165812438Y-109357142D02*
X165764819Y-109261904D01*
X165764819Y-109261904D02*
X165764819Y-109023809D01*
X165764819Y-109023809D02*
X165812438Y-108928571D01*
X165812438Y-108928571D02*
X165860057Y-108880952D01*
X165860057Y-108880952D02*
X165955295Y-108833333D01*
X165955295Y-108833333D02*
X166050533Y-108833333D01*
X166050533Y-108833333D02*
X166193390Y-108880952D01*
X166193390Y-108880952D02*
X166764819Y-109452380D01*
X166764819Y-109452380D02*
X166764819Y-108833333D01*
X94134819Y-114833333D02*
X94849104Y-114833333D01*
X94849104Y-114833333D02*
X94991961Y-114880952D01*
X94991961Y-114880952D02*
X95087200Y-114976190D01*
X95087200Y-114976190D02*
X95134819Y-115119047D01*
X95134819Y-115119047D02*
X95134819Y-115214285D01*
X95134819Y-113833333D02*
X95134819Y-114404761D01*
X95134819Y-114119047D02*
X94134819Y-114119047D01*
X94134819Y-114119047D02*
X94277676Y-114214285D01*
X94277676Y-114214285D02*
X94372914Y-114309523D01*
X94372914Y-114309523D02*
X94420533Y-114404761D01*
X151833333Y-107179580D02*
X151785714Y-107227200D01*
X151785714Y-107227200D02*
X151642857Y-107274819D01*
X151642857Y-107274819D02*
X151547619Y-107274819D01*
X151547619Y-107274819D02*
X151404762Y-107227200D01*
X151404762Y-107227200D02*
X151309524Y-107131961D01*
X151309524Y-107131961D02*
X151261905Y-107036723D01*
X151261905Y-107036723D02*
X151214286Y-106846247D01*
X151214286Y-106846247D02*
X151214286Y-106703390D01*
X151214286Y-106703390D02*
X151261905Y-106512914D01*
X151261905Y-106512914D02*
X151309524Y-106417676D01*
X151309524Y-106417676D02*
X151404762Y-106322438D01*
X151404762Y-106322438D02*
X151547619Y-106274819D01*
X151547619Y-106274819D02*
X151642857Y-106274819D01*
X151642857Y-106274819D02*
X151785714Y-106322438D01*
X151785714Y-106322438D02*
X151833333Y-106370057D01*
X152785714Y-107274819D02*
X152214286Y-107274819D01*
X152500000Y-107274819D02*
X152500000Y-106274819D01*
X152500000Y-106274819D02*
X152404762Y-106417676D01*
X152404762Y-106417676D02*
X152309524Y-106512914D01*
X152309524Y-106512914D02*
X152214286Y-106560533D01*
%TO.C,U2*%
D11*
X112730000Y-111270000D02*
X112730000Y-111540000D01*
X112730000Y-118170000D02*
X112730000Y-117900000D01*
X119150000Y-111270000D02*
X112730000Y-111270000D01*
X119150000Y-118170000D02*
X112730000Y-118170000D01*
X111000000Y-111580000D02*
X110660000Y-111110000D01*
X111340000Y-111110000D01*
X111000000Y-111580000D01*
G36*
X111000000Y-111580000D02*
G01*
X110660000Y-111110000D01*
X111340000Y-111110000D01*
X111000000Y-111580000D01*
G37*
%TO.C,U1*%
X124322500Y-99025000D02*
X124322500Y-105185000D01*
X124322500Y-99025000D02*
X142562500Y-99025000D01*
X124322500Y-123985000D02*
X124322500Y-124765000D01*
X124322500Y-124765000D02*
X125322500Y-124765000D01*
X142562500Y-99025000D02*
X142562500Y-105440000D01*
X142562500Y-123985000D02*
X142562500Y-124765000D01*
X142562500Y-124765000D02*
X141562500Y-124765000D01*
X124317500Y-105910000D02*
X123817500Y-105910000D01*
X124317500Y-105410000D01*
X124317500Y-105910000D01*
G36*
X124317500Y-105910000D02*
G01*
X123817500Y-105910000D01*
X124317500Y-105410000D01*
X124317500Y-105910000D01*
G37*
%TO.C,R2*%
X148272936Y-112765000D02*
X148727064Y-112765000D01*
X148272936Y-114235000D02*
X148727064Y-114235000D01*
%TO.C,R1*%
X151772936Y-117265000D02*
X152227064Y-117265000D01*
X151772936Y-118735000D02*
X152227064Y-118735000D01*
%TO.C,J2*%
X167310000Y-110880000D02*
X167310000Y-109500000D01*
X168690000Y-110880000D02*
X167310000Y-110880000D01*
X169960000Y-110880000D02*
X177690000Y-110880000D01*
X169960000Y-110880000D02*
X169960000Y-108120000D01*
X177690000Y-110880000D02*
X177690000Y-108120000D01*
X169960000Y-108120000D02*
X177690000Y-108120000D01*
%TO.C,J1*%
X95680000Y-119620000D02*
X95680000Y-109380000D01*
X98700000Y-119620000D02*
X98700000Y-109380000D01*
X103600000Y-119620000D02*
X103600000Y-109380000D01*
X105100000Y-119620000D02*
X105100000Y-109380000D01*
X105720000Y-119620000D02*
X95680000Y-119620000D01*
X105720000Y-117300000D02*
X105720000Y-119620000D01*
X95680000Y-109380000D02*
X105720000Y-109380000D01*
X105720000Y-109380000D02*
X105720000Y-116700000D01*
X105720000Y-117000000D02*
X106330000Y-116560000D01*
X106330000Y-117440000D01*
X105720000Y-117000000D01*
G36*
X106330000Y-117440000D02*
G01*
X105720000Y-117000000D01*
X106330000Y-116560000D01*
X106330000Y-117440000D01*
G37*
%TO.C,C1*%
X151738748Y-107765000D02*
X152261252Y-107765000D01*
X151738748Y-109235000D02*
X152261252Y-109235000D01*
%TD*%
M02*
